<?xml version="1.0" encoding="UTF-8"?><svg xmlns="http://www.w3.org/2000/svg" xmlns:xlink="http://www.w3.org/1999/xlink" contentScriptType="text/ecmascript" width="315" zoomAndPan="magnify" contentStyleType="text/css" viewBox="0 0 315 95.999999" height="95.999999" preserveAspectRatio="xMidYMid meet" version="1.0"><path fill="rgb(52.938843%, 12.159729%, 25.489807%)" d="M 83.398438 23.015625 C 76.570312 23.015625 70.292969 26.761719 67.058594 32.753906 L 63.0625 40.136719 L 62.597656 40.992188 L 62.148438 41.828125 L 50.078125 64.144531 L 30.367188 27.300781 L 39.128906 27.300781 L 46.183594 40.421875 L 49.882812 47.3125 L 53.699219 40.480469 L 61.097656 27.285156 L 67.492188 27.285156 C 69.035156 25.5625 70.847656 24.125 72.824219 22.988281 L 58.582031 22.988281 L 49.957031 38.367188 L 41.675781 22.988281 L 23.195312 22.988281 L 50.046875 73.238281 L 64.992188 45.601562 L 67.480469 41.019531 L 67.945312 40.167969 L 70.820312 34.847656 C 70.96875 34.566406 71.148438 34.28125 71.3125 33.996094 C 73.230469 30.96875 76.195312 28.78125 79.59375 27.839844 C 80.523438 27.585938 81.480469 27.421875 82.457031 27.34375 C 82.785156 27.332031 83.113281 27.316406 83.445312 27.316406 L 122.59375 27.316406 L 118.636719 34.683594 L 100.515625 34.683594 L 99.304688 36.960938 L 82.546875 68.445312 L 73.664062 68.445312 L 88.355469 41.140625 L 91.769531 34.804688 L 74.128906 34.804688 C 73.125 36.390625 71.671875 39.101562 71.671875 39.101562 L 84.582031 39.101562 L 66.460938 72.742188 L 85.121094 72.742188 L 103.09375 38.96875 L 121.199219 38.96875 L 129.765625 23.015625 Z M 83.398438 23.015625 " fill-opacity="1" fill-rule="nonzero"/><path fill="rgb(90.589905%, 46.669006%, 14.118958%)" d="M 153.472656 38.5625 C 153.472656 38.5625 155.480469 33.949219 156.484375 31.644531 C 157.488281 29.351562 158.492188 27.046875 159.507812 24.722656 C 159.734375 24.199219 160.09375 23.78125 160.574219 23.464844 C 161.050781 23.167969 161.589844 23 162.175781 23 L 164.707031 23 L 154.972656 45.320312 L 151.273438 45.320312 L 141.539062 23 L 144.054688 23 C 144.339844 23 144.609375 23.046875 144.890625 23.121094 C 145.160156 23.210938 145.429688 23.332031 145.65625 23.480469 C 145.894531 23.628906 146.105469 23.824219 146.300781 24.019531 C 146.480469 24.230469 146.628906 24.453125 146.734375 24.710938 L 152.753906 38.519531 L 153.113281 39.328125 Z M 153.472656 38.5625 " fill-opacity="1" fill-rule="nonzero"/><path fill="rgb(90.589905%, 46.669006%, 14.118958%)" d="M 168.152344 23.015625 L 172.238281 23.015625 L 172.238281 45.332031 L 168.152344 45.332031 Z M 168.152344 23.015625 " fill-opacity="1" fill-rule="nonzero"/><path fill="rgb(90.589905%, 46.669006%, 14.118958%)" d="M 218.097656 33.394531 L 218.097656 42.757812 C 217.542969 43.3125 216.929688 43.777344 216.269531 44.152344 C 215.609375 44.511719 214.9375 44.792969 214.21875 45.019531 C 213.5 45.230469 212.75 45.378906 211.988281 45.453125 C 211.207031 45.527344 210.429688 45.574219 209.648438 45.574219 C 208.078125 45.574219 206.59375 45.273438 205.21875 44.675781 C 203.839844 44.074219 202.625 43.265625 201.59375 42.234375 C 200.558594 41.199219 199.734375 40 199.136719 38.625 C 198.539062 37.246094 198.238281 35.761719 198.238281 34.191406 C 198.238281 33.140625 198.371094 32.136719 198.640625 31.164062 C 198.910156 30.191406 199.300781 29.292969 199.796875 28.453125 C 200.289062 27.613281 200.890625 26.851562 201.59375 26.148438 C 202.28125 25.457031 203.058594 24.859375 203.898438 24.363281 C 204.738281 23.871094 205.652344 23.496094 206.625 23.226562 C 207.597656 22.957031 208.601562 22.820312 209.648438 22.820312 C 210.472656 22.820312 211.296875 22.910156 212.089844 23.105469 C 212.886719 23.285156 213.664062 23.570312 214.398438 23.914062 C 215.132812 24.273438 215.835938 24.695312 216.507812 25.1875 C 217.183594 25.683594 217.8125 26.25 218.394531 26.867188 L 217.46875 27.808594 C 217.183594 28.109375 216.867188 28.332031 216.523438 28.484375 C 216.179688 28.632812 215.804688 28.707031 215.371094 28.707031 C 214.785156 28.707031 214.261719 28.542969 213.785156 28.214844 C 213.183594 27.808594 212.554688 27.496094 211.867188 27.269531 C 211.175781 27.046875 210.445312 26.925781 209.664062 26.925781 C 208.660156 26.925781 207.71875 27.121094 206.835938 27.496094 C 205.9375 27.882812 205.15625 28.394531 204.5 29.050781 C 203.839844 29.710938 203.300781 30.492188 202.925781 31.359375 C 202.535156 32.242188 202.339844 33.1875 202.339844 34.191406 C 202.339844 35.222656 202.550781 36.183594 202.957031 37.066406 C 203.359375 37.949219 203.898438 38.730469 204.589844 39.386719 C 205.277344 40.046875 206.070312 40.554688 206.984375 40.929688 C 207.898438 41.304688 208.839844 41.484375 209.84375 41.484375 C 210.339844 41.46875 210.832031 41.441406 211.328125 41.363281 C 211.746094 41.304688 212.210938 41.199219 212.691406 41.066406 C 213.183594 40.929688 213.617188 40.734375 214.023438 40.496094 L 214.023438 37.351562 C 213.589844 37.335938 213.15625 37.335938 212.734375 37.320312 C 212.316406 37.320312 211.941406 37.230469 211.613281 37.082031 C 211.28125 36.929688 211.027344 36.660156 210.816406 36.300781 C 210.625 35.925781 210.519531 35.386719 210.519531 34.65625 L 210.519531 33.394531 Z M 218.097656 33.394531 " fill-opacity="1" fill-rule="nonzero"/><path fill="rgb(90.589905%, 46.669006%, 14.118958%)" d="M 224.6875 23.015625 L 228.773438 23.015625 L 228.773438 45.332031 L 224.6875 45.332031 Z M 224.6875 23.015625 " fill-opacity="1" fill-rule="nonzero"/><path fill="rgb(90.589905%, 46.669006%, 14.118958%)" d="M 239.589844 28.632812 L 239.589844 45.332031 L 235.515625 45.332031 L 235.515625 23.015625 L 239.109375 23.015625 C 239.601562 23.015625 240.050781 23.089844 240.425781 23.242188 C 240.800781 23.390625 241.101562 23.617188 241.324219 23.914062 C 242.882812 26.132812 251.238281 37.949219 251.238281 37.949219 L 251.238281 23.03125 L 255.3125 23.03125 L 255.3125 45.347656 L 251.523438 45.347656 Z M 239.589844 28.632812 " fill-opacity="1" fill-rule="nonzero"/><path fill="rgb(90.589905%, 46.669006%, 14.118958%)" d="M 262.066406 23.015625 L 266.15625 23.015625 L 266.15625 45.332031 L 262.066406 45.332031 Z M 262.066406 23.015625 " fill-opacity="1" fill-rule="nonzero"/><path fill="rgb(90.589905%, 46.669006%, 14.118958%)" d="M 283.019531 23.015625 L 279.335938 23.015625 L 269.585938 45.332031 L 272.117188 45.332031 C 272.402344 45.332031 272.671875 45.289062 272.957031 45.214844 C 273.226562 45.125 273.496094 45.019531 273.734375 44.871094 C 273.972656 44.71875 274.183594 44.539062 274.378906 44.332031 C 274.574219 44.121094 274.707031 43.894531 274.8125 43.640625 L 276.117188 40.617188 L 278.464844 35.179688 L 278.480469 35.179688 L 281.164062 28.949219 L 284.425781 36.511719 L 282.570312 36.511719 C 281.175781 36.511719 279.933594 37.335938 279.378906 38.609375 L 278.511719 40.617188 L 286.222656 40.617188 L 287.542969 43.640625 C 287.78125 44.164062 288.140625 44.585938 288.621094 44.882812 C 289.101562 45.183594 289.625 45.332031 290.207031 45.332031 L 292.738281 45.332031 Z M 283.019531 23.015625 " fill-opacity="1" fill-rule="nonzero"/><path fill="rgb(90.589905%, 46.669006%, 14.118958%)" d="M 183.050781 45.332031 L 178.976562 45.332031 L 178.976562 23.015625 L 187.351562 23.015625 C 188.429688 23.015625 189.402344 23.226562 190.285156 23.628906 C 191.167969 24.035156 191.917969 24.574219 192.53125 25.25 C 193.160156 25.921875 193.640625 26.671875 193.984375 27.523438 C 194.328125 28.378906 194.492188 29.246094 194.492188 30.160156 C 194.492188 30.820312 194.402344 31.449219 194.222656 32.078125 C 194.042969 32.707031 193.789062 33.292969 193.445312 33.832031 C 193.101562 34.386719 192.683594 34.894531 192.1875 35.34375 C 191.695312 35.808594 191.125 36.199219 190.480469 36.527344 C 191.574219 38.007812 192.652344 39.476562 193.730469 40.945312 C 194.808594 42.398438 195.902344 43.867188 196.996094 45.347656 L 193.804688 45.347656 C 193.582031 45.347656 193.324219 45.304688 193.042969 45.214844 C 192.757812 45.125 192.441406 44.972656 192.128906 44.765625 C 191.8125 44.554688 191.484375 44.300781 191.140625 43.984375 C 190.792969 43.671875 190.464844 43.265625 190.152344 42.800781 L 186.09375 37.320312 L 183.035156 37.320312 L 183.035156 45.332031 Z M 187.46875 33.203125 C 187.859375 33.203125 188.234375 33.113281 188.59375 32.945312 C 188.953125 32.78125 189.265625 32.558594 189.523438 32.273438 C 189.792969 31.988281 190 31.675781 190.152344 31.300781 C 190.300781 30.925781 190.390625 30.550781 190.390625 30.160156 C 190.390625 29.757812 190.316406 29.367188 190.152344 29.007812 C 190 28.632812 189.792969 28.320312 189.523438 28.035156 C 189.253906 27.75 188.953125 27.523438 188.59375 27.359375 C 188.234375 27.195312 187.859375 27.105469 187.46875 27.105469 L 183.050781 27.105469 L 183.050781 33.1875 L 187.46875 33.1875 Z M 187.46875 33.203125 " fill-opacity="1" fill-rule="nonzero"/><path fill="rgb(90.589905%, 46.669006%, 14.118958%)" d="M 144.519531 54.84375 L 144.519531 50.90625 L 161.742188 50.90625 L 161.742188 54.84375 L 155.179688 54.84375 L 155.179688 73.238281 L 151.09375 73.238281 L 151.09375 54.84375 Z M 144.519531 54.84375 " fill-opacity="1" fill-rule="nonzero"/><path fill="rgb(90.589905%, 46.669006%, 14.118958%)" d="M 179.488281 73.238281 L 165.171875 73.238281 L 165.171875 50.921875 L 179.488281 50.921875 L 179.488281 54.828125 L 169.242188 54.828125 L 169.242188 60.027344 L 177.554688 60.027344 L 177.554688 63.9375 L 169.242188 63.9375 L 169.242188 69.328125 L 179.488281 69.328125 Z M 179.488281 73.238281 " fill-opacity="1" fill-rule="nonzero"/><path fill="rgb(90.589905%, 46.669006%, 14.118958%)" d="M 186.273438 62.0625 C 186.273438 63.066406 186.464844 64.011719 186.855469 64.910156 C 187.246094 65.792969 187.769531 66.574219 188.445312 67.230469 C 189.117188 67.890625 189.894531 68.414062 190.78125 68.789062 C 191.664062 69.179688 192.605469 69.359375 193.625 69.359375 C 194.402344 69.359375 195.136719 69.238281 195.828125 69.015625 C 196.515625 68.773438 197.160156 68.460938 197.742188 68.054688 C 197.96875 67.90625 198.222656 67.800781 198.476562 67.710938 C 198.746094 67.621094 199.015625 67.589844 199.316406 67.589844 C 199.78125 67.589844 200.183594 67.667969 200.515625 67.816406 C 200.84375 67.964844 201.144531 68.175781 201.429688 68.445312 L 202.371094 69.390625 C 201.789062 70.019531 201.160156 70.570312 200.484375 71.066406 C 199.8125 71.558594 199.105469 71.996094 198.359375 72.339844 C 197.609375 72.699219 196.84375 72.96875 196.050781 73.148438 C 195.257812 73.328125 194.449219 73.433594 193.609375 73.433594 C 192.039062 73.433594 190.554688 73.132812 189.164062 72.535156 C 187.769531 71.933594 186.570312 71.125 185.523438 70.09375 C 184.488281 69.058594 183.667969 67.859375 183.066406 66.484375 C 182.46875 65.105469 182.167969 63.621094 182.167969 62.050781 C 182.167969 61 182.304688 59.996094 182.574219 59.023438 C 182.84375 58.050781 183.230469 57.152344 183.726562 56.3125 C 184.21875 55.472656 184.820312 54.710938 185.523438 54.007812 C 186.210938 53.316406 186.992188 52.71875 187.828125 52.222656 C 188.683594 51.730469 189.582031 51.355469 190.554688 51.085938 C 191.527344 50.816406 192.546875 50.679688 193.59375 50.679688 C 194.417969 50.679688 195.242188 50.769531 196.035156 50.964844 C 196.832031 51.144531 197.59375 51.429688 198.34375 51.773438 C 199.09375 52.132812 199.796875 52.554688 200.46875 53.046875 C 201.144531 53.542969 201.773438 54.109375 202.355469 54.726562 L 201.414062 55.667969 C 201.144531 55.9375 200.828125 56.148438 200.484375 56.3125 C 200.140625 56.476562 199.75 56.550781 199.316406 56.550781 C 198.746094 56.550781 198.222656 56.386719 197.742188 56.058594 C 197.144531 55.652344 196.5 55.339844 195.8125 55.113281 C 195.121094 54.890625 194.390625 54.769531 193.625 54.769531 C 192.621094 54.769531 191.664062 54.964844 190.78125 55.339844 C 189.894531 55.730469 189.117188 56.238281 188.445312 56.898438 C 187.769531 57.554688 187.246094 58.335938 186.855469 59.203125 C 186.464844 60.117188 186.273438 61.0625 186.273438 62.0625 Z M 186.273438 62.0625 " fill-opacity="1" fill-rule="nonzero"/><path fill="rgb(90.589905%, 46.669006%, 14.118958%)" d="M 225.988281 73.238281 L 221.902344 73.238281 L 221.902344 63.980469 L 210.9375 63.980469 L 210.9375 73.238281 L 206.863281 73.238281 L 206.863281 50.921875 L 210.9375 50.921875 L 210.9375 60.074219 L 221.902344 60.074219 L 221.902344 50.921875 L 225.988281 50.921875 Z M 225.988281 73.238281 " fill-opacity="1" fill-rule="nonzero"/><path fill="rgb(90.589905%, 46.669006%, 14.118958%)" d="M 230.570312 69.660156 C 231.621094 69.660156 232.460938 70.511719 232.460938 71.546875 C 232.460938 72.59375 231.605469 73.433594 230.570312 73.433594 C 229.523438 73.433594 228.683594 72.59375 228.683594 71.546875 C 228.683594 70.511719 229.523438 69.660156 230.570312 69.660156 Z M 230.570312 73.28125 C 231.515625 73.28125 232.292969 72.519531 232.292969 71.558594 C 232.292969 70.617188 231.515625 69.839844 230.570312 69.839844 C 229.613281 69.839844 228.851562 70.617188 228.851562 71.558594 C 228.863281 72.503906 229.628906 73.28125 230.570312 73.28125 Z M 230.855469 71.742188 L 231.367188 72.460938 C 231.382812 72.503906 231.367188 72.519531 231.320312 72.519531 L 231.140625 72.519531 C 231.113281 72.519531 231.082031 72.503906 231.050781 72.472656 L 230.558594 71.769531 L 230.199219 71.769531 L 230.199219 72.472656 C 230.199219 72.503906 230.183594 72.519531 230.152344 72.519531 L 229.972656 72.519531 C 229.929688 72.519531 229.929688 72.503906 229.929688 72.472656 L 229.929688 70.660156 C 229.929688 70.632812 229.941406 70.617188 229.972656 70.617188 L 230.632812 70.617188 C 230.945312 70.617188 231.292969 70.738281 231.292969 71.1875 C 231.277344 71.5 231.066406 71.679688 230.855469 71.742188 Z M 230.617188 71.515625 C 230.871094 71.515625 231.007812 71.394531 231.007812 71.171875 C 231.007812 70.929688 230.855469 70.839844 230.601562 70.839844 L 230.199219 70.839844 L 230.199219 71.515625 Z M 230.617188 71.515625 " fill-opacity="1" fill-rule="nonzero"/></svg>